<mxfile host="app.diagrams.net" modified="2022-11-01T06:22:44.594Z" agent="5.0 (Windows NT 10.0; Win64; x64) AppleWebKit/537.36 (KHTML, like Gecko) Chrome/106.0.0.0 Safari/537.36 Edg/106.0.1370.52" etag="Niai1MJPlixGAMNQpA3G" version="20.2.7" type="github">
  <diagram id="YNanO80mSoGBEf5pRlkH" name="第 1 页">
    <mxGraphModel dx="1564" dy="1460" grid="1" gridSize="10" guides="1" tooltips="1" connect="1" arrows="1" fold="1" page="1" pageScale="1" pageWidth="827" pageHeight="1169" math="0" shadow="0">
      <root>
        <mxCell id="0" />
        <mxCell id="1" parent="0" />
        <mxCell id="ACvmPrUbvzh30jpPwEL5-62" value="" style="edgeStyle=orthogonalEdgeStyle;rounded=0;orthogonalLoop=1;jettySize=auto;html=1;" edge="1" parent="1" source="ACvmPrUbvzh30jpPwEL5-2" target="ACvmPrUbvzh30jpPwEL5-39">
          <mxGeometry relative="1" as="geometry" />
        </mxCell>
        <mxCell id="ACvmPrUbvzh30jpPwEL5-2" value="安装helm" style="rounded=1;whiteSpace=wrap;html=1;" vertex="1" parent="1">
          <mxGeometry x="271.56" y="504.78999999999996" width="80" height="40" as="geometry" />
        </mxCell>
        <mxCell id="ACvmPrUbvzh30jpPwEL5-50" style="edgeStyle=orthogonalEdgeStyle;rounded=0;orthogonalLoop=1;jettySize=auto;html=1;" edge="1" parent="1" source="ACvmPrUbvzh30jpPwEL5-3" target="ACvmPrUbvzh30jpPwEL5-48">
          <mxGeometry relative="1" as="geometry" />
        </mxCell>
        <mxCell id="ACvmPrUbvzh30jpPwEL5-51" value="安装完成" style="edgeLabel;html=1;align=center;verticalAlign=middle;resizable=0;points=[];" vertex="1" connectable="0" parent="ACvmPrUbvzh30jpPwEL5-50">
          <mxGeometry x="0.9097" y="1" relative="1" as="geometry">
            <mxPoint x="41" y="-1" as="offset" />
          </mxGeometry>
        </mxCell>
        <mxCell id="ACvmPrUbvzh30jpPwEL5-3" value="安装&lt;br&gt;ansible" style="rounded=1;whiteSpace=wrap;html=1;" vertex="1" parent="1">
          <mxGeometry x="495.86999999999995" y="280" width="80" height="40" as="geometry" />
        </mxCell>
        <mxCell id="ACvmPrUbvzh30jpPwEL5-6" value="" style="edgeStyle=orthogonalEdgeStyle;rounded=0;orthogonalLoop=1;jettySize=auto;html=1;" edge="1" parent="1" source="ACvmPrUbvzh30jpPwEL5-4" target="ACvmPrUbvzh30jpPwEL5-5">
          <mxGeometry relative="1" as="geometry" />
        </mxCell>
        <mxCell id="ACvmPrUbvzh30jpPwEL5-4" value="初始化启动" style="ellipse;whiteSpace=wrap;html=1;" vertex="1" parent="1">
          <mxGeometry x="271.56" y="40" width="80" height="50" as="geometry" />
        </mxCell>
        <mxCell id="ACvmPrUbvzh30jpPwEL5-49" value="" style="edgeStyle=orthogonalEdgeStyle;rounded=0;orthogonalLoop=1;jettySize=auto;html=1;" edge="1" parent="1" source="ACvmPrUbvzh30jpPwEL5-5" target="ACvmPrUbvzh30jpPwEL5-48">
          <mxGeometry relative="1" as="geometry" />
        </mxCell>
        <mxCell id="ACvmPrUbvzh30jpPwEL5-5" value="外部数据库" style="rhombus;whiteSpace=wrap;html=1;" vertex="1" parent="1">
          <mxGeometry x="258.13" y="120" width="106.87" height="60" as="geometry" />
        </mxCell>
        <mxCell id="ACvmPrUbvzh30jpPwEL5-14" value="" style="edgeStyle=orthogonalEdgeStyle;rounded=0;orthogonalLoop=1;jettySize=auto;html=1;exitX=1;exitY=0.5;exitDx=0;exitDy=0;" edge="1" parent="1" source="ACvmPrUbvzh30jpPwEL5-5" target="ACvmPrUbvzh30jpPwEL5-13">
          <mxGeometry relative="1" as="geometry">
            <mxPoint x="498.1299999999999" y="150" as="sourcePoint" />
          </mxGeometry>
        </mxCell>
        <mxCell id="ACvmPrUbvzh30jpPwEL5-15" value="是" style="edgeLabel;html=1;align=center;verticalAlign=middle;resizable=0;points=[];" vertex="1" connectable="0" parent="ACvmPrUbvzh30jpPwEL5-14">
          <mxGeometry x="0.8272" relative="1" as="geometry">
            <mxPoint x="-51" as="offset" />
          </mxGeometry>
        </mxCell>
        <mxCell id="ACvmPrUbvzh30jpPwEL5-16" value="" style="edgeStyle=orthogonalEdgeStyle;rounded=0;orthogonalLoop=1;jettySize=auto;html=1;" edge="1" parent="1" source="ACvmPrUbvzh30jpPwEL5-13" target="ACvmPrUbvzh30jpPwEL5-3">
          <mxGeometry relative="1" as="geometry" />
        </mxCell>
        <mxCell id="ACvmPrUbvzh30jpPwEL5-80" value="否" style="edgeLabel;html=1;align=center;verticalAlign=middle;resizable=0;points=[];" vertex="1" connectable="0" parent="ACvmPrUbvzh30jpPwEL5-16">
          <mxGeometry x="-0.2794" y="1" relative="1" as="geometry">
            <mxPoint as="offset" />
          </mxGeometry>
        </mxCell>
        <mxCell id="ACvmPrUbvzh30jpPwEL5-13" value="初始化&lt;br&gt;时安装ansible&lt;br&gt;存在" style="rhombus;whiteSpace=wrap;html=1;" vertex="1" parent="1">
          <mxGeometry x="475.87" y="116.25" width="120" height="67.5" as="geometry" />
        </mxCell>
        <mxCell id="ACvmPrUbvzh30jpPwEL5-26" value="" style="edgeStyle=orthogonalEdgeStyle;rounded=0;orthogonalLoop=1;jettySize=auto;html=1;" edge="1" parent="1" source="ACvmPrUbvzh30jpPwEL5-23" target="ACvmPrUbvzh30jpPwEL5-2">
          <mxGeometry relative="1" as="geometry" />
        </mxCell>
        <mxCell id="ACvmPrUbvzh30jpPwEL5-27" value="不存在" style="edgeLabel;html=1;align=center;verticalAlign=middle;resizable=0;points=[];" vertex="1" connectable="0" parent="ACvmPrUbvzh30jpPwEL5-26">
          <mxGeometry x="0.7455" y="1" relative="1" as="geometry">
            <mxPoint x="-1" y="-19" as="offset" />
          </mxGeometry>
        </mxCell>
        <mxCell id="ACvmPrUbvzh30jpPwEL5-23" value="helm检测" style="rhombus;whiteSpace=wrap;html=1;" vertex="1" parent="1">
          <mxGeometry x="264.38" y="410" width="94.37" height="50" as="geometry" />
        </mxCell>
        <mxCell id="ACvmPrUbvzh30jpPwEL5-63" style="edgeStyle=orthogonalEdgeStyle;rounded=0;orthogonalLoop=1;jettySize=auto;html=1;" edge="1" parent="1" source="ACvmPrUbvzh30jpPwEL5-39" target="ACvmPrUbvzh30jpPwEL5-59">
          <mxGeometry relative="1" as="geometry">
            <Array as="points">
              <mxPoint x="150" y="615" />
              <mxPoint x="150" y="1130" />
            </Array>
          </mxGeometry>
        </mxCell>
        <mxCell id="ACvmPrUbvzh30jpPwEL5-64" value="异常" style="edgeLabel;html=1;align=center;verticalAlign=middle;resizable=0;points=[];" vertex="1" connectable="0" parent="ACvmPrUbvzh30jpPwEL5-63">
          <mxGeometry x="0.9674" y="3" relative="1" as="geometry">
            <mxPoint x="-3" y="-135" as="offset" />
          </mxGeometry>
        </mxCell>
        <mxCell id="ACvmPrUbvzh30jpPwEL5-68" value="" style="edgeStyle=orthogonalEdgeStyle;rounded=0;orthogonalLoop=1;jettySize=auto;html=1;" edge="1" parent="1" source="ACvmPrUbvzh30jpPwEL5-39" target="ACvmPrUbvzh30jpPwEL5-67">
          <mxGeometry relative="1" as="geometry" />
        </mxCell>
        <mxCell id="ACvmPrUbvzh30jpPwEL5-81" value="成功" style="edgeLabel;html=1;align=center;verticalAlign=middle;resizable=0;points=[];" vertex="1" connectable="0" parent="ACvmPrUbvzh30jpPwEL5-68">
          <mxGeometry x="0.7771" relative="1" as="geometry">
            <mxPoint y="-14" as="offset" />
          </mxGeometry>
        </mxCell>
        <mxCell id="ACvmPrUbvzh30jpPwEL5-39" value="检测结果" style="rhombus;whiteSpace=wrap;html=1;rounded=1;" vertex="1" parent="1">
          <mxGeometry x="271.56" y="579.79" width="80" height="70" as="geometry" />
        </mxCell>
        <mxCell id="ACvmPrUbvzh30jpPwEL5-52" style="edgeStyle=orthogonalEdgeStyle;rounded=0;orthogonalLoop=1;jettySize=auto;html=1;entryX=0.5;entryY=0;entryDx=0;entryDy=0;" edge="1" parent="1" source="ACvmPrUbvzh30jpPwEL5-48" target="ACvmPrUbvzh30jpPwEL5-23">
          <mxGeometry relative="1" as="geometry" />
        </mxCell>
        <mxCell id="ACvmPrUbvzh30jpPwEL5-58" value="正常" style="edgeLabel;html=1;align=center;verticalAlign=middle;resizable=0;points=[];" vertex="1" connectable="0" parent="ACvmPrUbvzh30jpPwEL5-52">
          <mxGeometry x="-0.1047" relative="1" as="geometry">
            <mxPoint as="offset" />
          </mxGeometry>
        </mxCell>
        <mxCell id="ACvmPrUbvzh30jpPwEL5-60" value="" style="edgeStyle=orthogonalEdgeStyle;rounded=0;orthogonalLoop=1;jettySize=auto;html=1;" edge="1" parent="1" source="ACvmPrUbvzh30jpPwEL5-48" target="ACvmPrUbvzh30jpPwEL5-59">
          <mxGeometry relative="1" as="geometry">
            <Array as="points">
              <mxPoint x="150" y="300" />
              <mxPoint x="150" y="1130" />
            </Array>
          </mxGeometry>
        </mxCell>
        <mxCell id="ACvmPrUbvzh30jpPwEL5-61" value="异常" style="edgeLabel;html=1;align=center;verticalAlign=middle;resizable=0;points=[];" vertex="1" connectable="0" parent="ACvmPrUbvzh30jpPwEL5-60">
          <mxGeometry x="0.8098" relative="1" as="geometry">
            <mxPoint y="-283" as="offset" />
          </mxGeometry>
        </mxCell>
        <mxCell id="ACvmPrUbvzh30jpPwEL5-48" value="是否&lt;br&gt;需要ansible&lt;br&gt;ansible的安装&lt;br&gt;情况&amp;nbsp;" style="rhombus;whiteSpace=wrap;html=1;rounded=0;" vertex="1" parent="1">
          <mxGeometry x="251.56" y="260" width="120" height="80" as="geometry" />
        </mxCell>
        <mxCell id="ACvmPrUbvzh30jpPwEL5-59" value="结束" style="ellipse;whiteSpace=wrap;html=1;rounded=0;" vertex="1" parent="1">
          <mxGeometry x="120" y="1070" width="60" height="60" as="geometry" />
        </mxCell>
        <mxCell id="ACvmPrUbvzh30jpPwEL5-70" value="" style="edgeStyle=orthogonalEdgeStyle;rounded=0;orthogonalLoop=1;jettySize=auto;html=1;" edge="1" parent="1" source="ACvmPrUbvzh30jpPwEL5-67" target="ACvmPrUbvzh30jpPwEL5-69">
          <mxGeometry relative="1" as="geometry" />
        </mxCell>
        <mxCell id="ACvmPrUbvzh30jpPwEL5-73" value="是" style="edgeLabel;html=1;align=center;verticalAlign=middle;resizable=0;points=[];" vertex="1" connectable="0" parent="ACvmPrUbvzh30jpPwEL5-70">
          <mxGeometry x="0.8819" y="1" relative="1" as="geometry">
            <mxPoint x="-74" y="1" as="offset" />
          </mxGeometry>
        </mxCell>
        <mxCell id="ACvmPrUbvzh30jpPwEL5-72" value="" style="edgeStyle=orthogonalEdgeStyle;rounded=0;orthogonalLoop=1;jettySize=auto;html=1;" edge="1" parent="1" source="ACvmPrUbvzh30jpPwEL5-67">
          <mxGeometry relative="1" as="geometry">
            <mxPoint x="311.5599999999997" y="800" as="targetPoint" />
          </mxGeometry>
        </mxCell>
        <mxCell id="ACvmPrUbvzh30jpPwEL5-82" value="否" style="edgeLabel;html=1;align=center;verticalAlign=middle;resizable=0;points=[];" vertex="1" connectable="0" parent="ACvmPrUbvzh30jpPwEL5-72">
          <mxGeometry x="0.72" y="1" relative="1" as="geometry">
            <mxPoint x="-1" y="-24" as="offset" />
          </mxGeometry>
        </mxCell>
        <mxCell id="ACvmPrUbvzh30jpPwEL5-67" value="安装外部&lt;br&gt;数据库" style="rhombus;whiteSpace=wrap;html=1;rounded=1;" vertex="1" parent="1">
          <mxGeometry x="271.56" y="680" width="80" height="80" as="geometry" />
        </mxCell>
        <mxCell id="ACvmPrUbvzh30jpPwEL5-88" style="edgeStyle=orthogonalEdgeStyle;rounded=0;orthogonalLoop=1;jettySize=auto;html=1;entryX=1;entryY=0.5;entryDx=0;entryDy=0;" edge="1" parent="1" source="ACvmPrUbvzh30jpPwEL5-69" target="ACvmPrUbvzh30jpPwEL5-83">
          <mxGeometry relative="1" as="geometry">
            <mxPoint x="660" y="970" as="targetPoint" />
            <Array as="points">
              <mxPoint x="640" y="720" />
              <mxPoint x="640" y="960" />
            </Array>
          </mxGeometry>
        </mxCell>
        <mxCell id="ACvmPrUbvzh30jpPwEL5-69" value="Ansible&lt;br&gt;初始化mysql" style="whiteSpace=wrap;html=1;rounded=1;" vertex="1" parent="1">
          <mxGeometry x="529.0699999999999" y="700" width="80" height="40" as="geometry" />
        </mxCell>
        <mxCell id="ACvmPrUbvzh30jpPwEL5-76" value="" style="edgeStyle=orthogonalEdgeStyle;rounded=0;orthogonalLoop=1;jettySize=auto;html=1;" edge="1" parent="1" source="ACvmPrUbvzh30jpPwEL5-74" target="ACvmPrUbvzh30jpPwEL5-75">
          <mxGeometry relative="1" as="geometry" />
        </mxCell>
        <mxCell id="ACvmPrUbvzh30jpPwEL5-79" value="是" style="edgeLabel;html=1;align=center;verticalAlign=middle;resizable=0;points=[];" vertex="1" connectable="0" parent="ACvmPrUbvzh30jpPwEL5-76">
          <mxGeometry x="-0.1842" relative="1" as="geometry">
            <mxPoint as="offset" />
          </mxGeometry>
        </mxCell>
        <mxCell id="ACvmPrUbvzh30jpPwEL5-84" value="" style="edgeStyle=orthogonalEdgeStyle;rounded=0;orthogonalLoop=1;jettySize=auto;html=1;" edge="1" parent="1" source="ACvmPrUbvzh30jpPwEL5-74" target="ACvmPrUbvzh30jpPwEL5-83">
          <mxGeometry relative="1" as="geometry" />
        </mxCell>
        <mxCell id="ACvmPrUbvzh30jpPwEL5-85" value="否" style="edgeLabel;html=1;align=center;verticalAlign=middle;resizable=0;points=[];" vertex="1" connectable="0" parent="ACvmPrUbvzh30jpPwEL5-84">
          <mxGeometry x="-0.296" relative="1" as="geometry">
            <mxPoint as="offset" />
          </mxGeometry>
        </mxCell>
        <mxCell id="ACvmPrUbvzh30jpPwEL5-74" value="安装&lt;br&gt;集群内部&lt;br&gt;数据库" style="rhombus;whiteSpace=wrap;html=1;rounded=1;" vertex="1" parent="1">
          <mxGeometry x="271.56" y="800" width="80" height="80" as="geometry" />
        </mxCell>
        <mxCell id="ACvmPrUbvzh30jpPwEL5-78" value="" style="edgeStyle=orthogonalEdgeStyle;rounded=0;orthogonalLoop=1;jettySize=auto;html=1;" edge="1" parent="1" source="ACvmPrUbvzh30jpPwEL5-75" target="ACvmPrUbvzh30jpPwEL5-77">
          <mxGeometry relative="1" as="geometry" />
        </mxCell>
        <mxCell id="ACvmPrUbvzh30jpPwEL5-75" value="helm&lt;br&gt;初始化longhorn" style="whiteSpace=wrap;html=1;rounded=1;" vertex="1" parent="1">
          <mxGeometry x="414" y="817.5" width="61.87" height="45" as="geometry" />
        </mxCell>
        <mxCell id="ACvmPrUbvzh30jpPwEL5-87" style="edgeStyle=orthogonalEdgeStyle;rounded=0;orthogonalLoop=1;jettySize=auto;html=1;entryX=1;entryY=0.5;entryDx=0;entryDy=0;" edge="1" parent="1" source="ACvmPrUbvzh30jpPwEL5-77" target="ACvmPrUbvzh30jpPwEL5-83">
          <mxGeometry relative="1" as="geometry">
            <mxPoint x="564.5350000000001" y="960" as="targetPoint" />
            <Array as="points">
              <mxPoint x="560" y="960" />
            </Array>
          </mxGeometry>
        </mxCell>
        <mxCell id="ACvmPrUbvzh30jpPwEL5-77" value="helm&lt;br&gt;初始化数据库" style="whiteSpace=wrap;html=1;rounded=1;" vertex="1" parent="1">
          <mxGeometry x="515.87" y="815" width="80" height="50" as="geometry" />
        </mxCell>
        <mxCell id="ACvmPrUbvzh30jpPwEL5-91" value="" style="edgeStyle=orthogonalEdgeStyle;rounded=0;orthogonalLoop=1;jettySize=auto;html=1;" edge="1" parent="1" source="ACvmPrUbvzh30jpPwEL5-83" target="ACvmPrUbvzh30jpPwEL5-90">
          <mxGeometry relative="1" as="geometry" />
        </mxCell>
        <mxCell id="ACvmPrUbvzh30jpPwEL5-83" value="数据库连接&lt;br&gt;配置" style="rounded=1;whiteSpace=wrap;html=1;" vertex="1" parent="1">
          <mxGeometry x="264.38" y="930" width="93.44" height="60" as="geometry" />
        </mxCell>
        <mxCell id="ACvmPrUbvzh30jpPwEL5-89" value="&lt;h1&gt;基本运行环境&lt;/h1&gt;&lt;p&gt;1.k8s或k3s的master节点上运行&lt;/p&gt;&lt;p&gt;2.helm，必要的环境要素&lt;/p&gt;&lt;p&gt;3.ansilbe&amp;nbsp;可选，需要在外部服务器内安装mysql需要&lt;/p&gt;" style="text;html=1;strokeColor=none;fillColor=none;spacing=5;spacingTop=-20;whiteSpace=wrap;overflow=hidden;rounded=0;" vertex="1" parent="1">
          <mxGeometry x="637" y="30" width="190" height="140" as="geometry" />
        </mxCell>
        <mxCell id="ACvmPrUbvzh30jpPwEL5-92" value="" style="edgeStyle=orthogonalEdgeStyle;rounded=0;orthogonalLoop=1;jettySize=auto;html=1;" edge="1" parent="1" source="ACvmPrUbvzh30jpPwEL5-90" target="ACvmPrUbvzh30jpPwEL5-59">
          <mxGeometry relative="1" as="geometry" />
        </mxCell>
        <mxCell id="ACvmPrUbvzh30jpPwEL5-90" value="执行helm&lt;br&gt;云管平台" style="rounded=1;whiteSpace=wrap;html=1;" vertex="1" parent="1">
          <mxGeometry x="259.06" y="1075" width="105" height="50" as="geometry" />
        </mxCell>
      </root>
    </mxGraphModel>
  </diagram>
</mxfile>
